<svg width="24" height="24" viewBox="0 0 24 24" fill="none" xmlns="http://www.w3.org/2000/svg">
<path d="M12 21L10.695 19.8665C9.18 18.5441 7.9275 17.4033 6.9375 16.4441C5.9475 15.485 5.16 14.6238 4.575 13.8606C3.99 13.0979 3.5814 12.3969 3.3492 11.7575C3.1164 11.1181 3 10.4641 3 9.79564C3 8.42961 3.4725 7.28883 4.4175 6.3733C5.3625 5.45777 6.54 5 7.95 5C8.73 5 9.4725 5.15985 10.1775 5.47956C10.8825 5.79927 11.49 6.24977 12 6.83106C12.51 6.24977 13.1175 5.79927 13.8225 5.47956C14.5275 5.15985 15.27 5 16.05 5C17.46 5 18.6375 5.45777 19.5825 6.3733C20.5275 7.28883 21 8.42961 21 9.79564C21 10.4641 20.8839 11.1181 20.6517 11.7575C20.4189 12.3969 20.01 13.0979 19.425 13.8606C18.84 14.6238 18.0525 15.485 17.0625 16.4441C16.0725 17.4033 14.82 18.5441 13.305 19.8665L12 21Z" fill="#D64141"/>
<path fill-rule="evenodd" clip-rule="evenodd" d="M10.4383 6.9751C8.88138 5.38281 6.3194 5.38281 4.7625 6.9751C3.2543 8.51758 3.2543 10.9823 4.7625 12.5248L11.8617 19.7853C11.9378 19.8631 12.063 19.8631 12.1391 19.7853L19.2383 12.5248C20.7465 10.9823 20.7465 8.51758 19.2383 6.9751C17.6814 5.38281 15.1194 5.38281 13.5625 6.9751L12.5366 8.02427C12.3955 8.16858 12.2022 8.24993 12.0004 8.24993C11.7986 8.24993 11.6052 8.16858 11.4641 8.02427L10.4383 6.9751ZM3.68999 5.92642C5.83529 3.73237 9.3655 3.73237 11.5108 5.92642L12.0004 6.42715L12.49 5.92642C14.6353 3.73237 18.1655 3.73237 20.3108 5.92642C22.389 8.05184 22.389 11.448 20.3108 13.5734L13.2116 20.8339C12.5471 21.5135 11.4537 21.5135 10.7892 20.8339L3.68999 13.5734C1.6118 11.448 1.6118 8.05184 3.68999 5.92642Z" fill="#D64141"/>
</svg>
